<svg width="684" height="800" viewBox="0 0 684 800" fill="none" xmlns="http://www.w3.org/2000/svg">
<path d="M96.5451 275.549L96.5432 275.786L96.4182 291.809L96.3818 296.477L94.0811 300.54L19.0846 432.955C19.0839 432.957 19.0831 432.958 19.0823 432.96C17.8897 435.075 17.7777 437.632 18.7956 439.86L96.5451 275.549ZM96.5451 275.549L96.5407 275.312M96.5451 275.549L96.5407 275.312M96.5407 275.312C95.0009 192.244 128.18 126.083 181.453 81.6693C234.99 37.0359 309.801 13.6139 392.145 18.6801C489.172 24.6583 560.111 66.0578 605.387 124.767C650.902 183.786 671.32 261.431 664.669 340.757L664.669 340.76C655.011 456.181 613.021 506.279 569.75 557.908C552.743 578.2 535.538 598.727 520.02 623.55C511.218 637.604 505.378 658.069 501.702 676.143C497.941 694.635 495.906 713.416 495.906 725.611V725.737V725.863V725.99V726.117V726.246V726.375V726.504V726.635V726.766V726.898V727.031V727.164V727.298V727.432V727.567V727.703V727.84V727.977V728.115V728.254V728.393V728.533V728.673V728.814V728.956V729.098V729.241V729.385V729.529V729.674V729.82V729.966V730.112V730.26V730.408V730.556V730.705V730.855V731.005V731.156V731.307V731.459V731.612V731.765V731.919V732.073V732.228V732.383V732.539V732.695V732.852V733.009V733.167V733.326V733.485V733.645V733.805V733.965V734.126V734.288V734.45V734.612V734.775V734.939V735.103V735.268V735.432V735.598V735.764V735.93V736.097V736.264V736.432V736.6V736.769V736.938V737.108V737.277V737.448V737.619V737.79V737.962V738.134V738.306V738.479V738.652V738.826V739V739.174V739.349V739.525V739.7V739.876V740.053V740.229V740.406V740.584V740.762V740.94V741.118V741.297V741.477V741.656V741.836V742.016V742.197V742.378V742.559V742.74V742.922V743.104V743.287V743.469V743.652V743.836V744.019V744.203V744.387V744.572V744.757V744.942V745.127V745.312V745.498V745.684V745.871V746.057V746.244V746.431V746.618V746.806V746.993V747.181V747.37V747.558V747.747V747.935V748.125V748.314V748.503V748.693V748.883V749.073V749.263V749.453V749.644V749.834V750.025V750.216V750.408V750.599V750.79V750.982V751.174V751.366V751.558V751.75V751.943V752.135V752.328V752.52V752.713V752.906V753.099V753.292V753.486V753.679V753.872V754.066V754.26V754.453V754.647V754.841V755.035V755.229V755.423V755.617V755.811V756.005V756.2V756.394V756.588V756.783V756.977V757.172V757.366V757.561V757.755V757.95V758.144V758.339V758.533V758.728V758.922V759.117V759.311V759.506V759.7V759.895V760.089V760.284V760.478V760.672V760.866V761.061V761.255V761.449V761.643V761.837V762.031V762.225V762.419V762.612V762.806V762.999V763.193V763.386V763.579V763.773V763.966V764.159V764.351V764.544V764.737V764.929V765.122V765.314V765.506V765.698V765.89V766.081V766.273V766.464V766.655V766.846V767.037V767.228V767.418V767.609V767.799V767.989V768.179V768.368V768.558V768.747V768.936V769.125V769.313V769.502V769.69V769.878V770.066V770.253V770.44V770.627V770.814V771.001V771.187V771.373V771.559V771.744V771.93V772.115V772.299V772.484V772.668V772.852V773.035V773.219V773.402V773.584V773.767V773.949V774.131V774.312V774.493V774.674V774.855V775.035V775.215V775.394V775.573V775.752V775.931V776.109V776.287V776.464V776.641V776.818V776.994V777.17V777.346V777.521V777.696V777.87V778.044V778.218V778.391V778.564V778.737V778.909V779.08V779.251V779.422V779.592V779.762V779.932V780.101V780.27V780.438V780.605V780.773V780.939V781.106V781.272V781.437V781.602V781.766V781.93V782H218.755V690.119C218.755 677.742 213.499 665.921 204.232 657.641L204.23 657.64C195.487 649.831 183.984 645.885 172.322 646.652L136.792 643.821L135.076 643.684L133.365 643.875C124.918 644.818 116.469 642.186 110.04 636.604C103.63 631.002 99.8455 622.987 99.5937 614.47L99.5741 613.808L99.5059 613.149L84.97 472.694L83.7042 460.463L71.8509 457.195L25.4868 444.409L24.8389 444.23M96.5407 275.312L24.8389 444.23M24.8389 444.23L24.1795 444.1M24.8389 444.23L24.1795 444.1M24.1795 444.1C21.806 443.633 19.7992 442.048 18.7966 439.863L24.1795 444.1Z" fill="#D9D9D9" stroke="black" stroke-width="36"/>
</svg>
